<?xml version="1.0" encoding="utf-8"?>
<!-- Generator: Adobe Illustrator 17.1.0, SVG Export Plug-In . SVG Version: 6.00 Build 0)  -->
<!DOCTYPE svg PUBLIC "-//W3C//DTD SVG 1.1//EN" "http://www.w3.org/Graphics/SVG/1.1/DTD/svg11.dtd">
<svg version="1.1" id="Layer_1" xmlns="http://www.w3.org/2000/svg" xmlns:xlink="http://www.w3.org/1999/xlink" x="0px" y="0px"
	 viewBox="0 0 348.2 388" enable-background="new 0 0 348.2 388" xml:space="preserve">
<g>
	<circle fill="#80C0D6" cx="177.7" cy="205.6" r="116.6"/>
</g>
<g>
	<path fill="#38475B" d="M165.7,319.2c0,0-6.2-4.5-5.9-7.4c0.3-2.9-2.9-5.5-4-9.8c-1.1-4.3-3.7-10.9-5.7-11.2
		c-2-0.3-12.9-3.4-14.3-5.5s-7.7-8.3-8.9-11.5c-1.1-3.2-6.6-5.2-7.5-5.2s-2.9-4.9-1.7-6c1.1-1.1,1.3-1.1-0.3-2.9
		c-1.7-1.7-2.4-6.9,0-6.6c2.4,0.3,2.4-3.2,1.8-4.9s2.9-6.9,0.9-7.7c-2-0.9-4-5.7-4.2-5.7s-7.6,3.4-9.3,0c-1.7-3.4-7.2-5.7-6.6-8.6
		c0.6-2.9-6-4.9-6.3-5.5s-4.6-3.7-6.6-6.9c-2-3.2-7.2,6.9-11.8-5.5c-4.6-12.3-4.9-20.7-4.9-27.5c0,0-1.1,11.8-1.7,12.9
		c-0.6,1.1-1.7-0.3,0-6.6c1.7-6.3,2-20.4,4-23c2-2.6,4.9-16.1,8-17.8s4-3.7,4-5.7s-0.8-7.6-0.8-7.6s19.5-24.4,40.4-33
		c2.5-1,8.1-1.7,6.8,1.9c-1.4,3.9-1.7,7.5-0.6,4.9c1.1-2.6,5.7-7.3,8-6c2.3,1.4,6-0.1,6.6,2.2c0.6,2.3,2,2,3.2,1.4
		c1.1-0.6-1.7,1.4-2.6,3.2c-0.9,1.7-2.6,5.2-4,4c-1.4-1.1-6.6-1.7-6.6-1.7s1.7-1.1,2.6-2.9c0.9-1.7-1.7-3.4-2.6-2
		c-0.9,1.4-4.6,4.3-4.6,5.2c0,0.9-0.6,2.3-2.6,2.3c-2,0,0.3,0.9-2,0s-16.1,7.7-12.3,10.9c3.7,3.2,4.3,0,5.7,1.7
		c1.4,1.7,0.8,2-0.7,2.9c-1.3,0.8,0.4,2.8,2.4,3.6c1.8-0.7,1.4-5.3,1.4-7c0-1.7,6.6-2,3.2-7.7c-3.4-5.7,4.7,1.5,5.5-3.4
		c0.8-4.9,6-0.9,6.6,0.6c0.6,1.4,5.3,4,6,0c0.7-4,4.3,3.2,4.3,3.2s3.2,1.4,5.7,4.9s1.4,7.2,3.4,5.5c2-1.7,5.6,3,4.7,3.8
		c-0.9,0.9-10.2,2.5-10.4,0.8c-0.3-1.7,2.6-5.5,0.6-6.3s-4.6,2.9-5.7,2.6c-1.1-0.3-5.5,0.9-3.2,1.1c2.3,0.3,5.5-1.1,2.3,0.3
		c-2.3,1-3.4,2.2-3.5,2.2c0,0,0.1-0.2,0.3-0.7c0.9-1.7-4-2.9-6.9,1.4c-2.9,4.3,4.6-3.2,5.5,2.3c0.9,5.5,2,1.4,3.4,0.9
		c1.3-0.5-1,2.9,1.8,0.6c0.4-0.3,0.7-1.3,1.6-1.4c4.9-0.9,1,1.7-1.1,3.7c-4.3,1.1-9.2,8-7.7,0.9c-5.8,4-9.2,6.9-6.9,8.6
		c-5.4,4.4-6.7-1.1-11.5,15.5c-2,6.9-13.3,5-11.8,18.2c2.3,10.4-0.6,9.5-2.3,6.9c-1-2-1.5-7.7-2.9-9.6c-3.2-0.6-6.6-0.9-8.3,0
		c-1.7,0.9-2.6,4.3-4.6,2.6c-2-1.7-5.5-0.2-6.3,3.2c-1.7,7.3-5.6,28.6,5.2,23.5c4.4-2.1,1.5-3.4,4.3-7.4c9.5-5.5,4.6,6.2,3.2,10.8
		c-1.4,4.6,7.7,0.3,8.3,8.3s-1.6,13.3,8.6,11.2c4.3-0.9,4.9,0.9,6.3,3.2c5.7,1.1,4.3-11.5,8.6-9.2c4.3,2.3,1.7-2.9,5.7-0.9
		c4,2,8,0.6,10.3,1.4c2.3,0.9,11.2,0,13.8,3.2s8.9,4,11.8,5.5c2.9,1.4,14.3-5.5,21.2,8.3c2.6,5.2,2.6,5.2,10.3,5.2s21.8-2,24.7,0.6
		c2.9,2.6,12.6-0.6-3.7,21.8c1.1,13.5-2.6,16.4-17.8,25c-0.3,5.7-2,7.5-9.2,12.3c-7.2,4.9-15.5,6.9-16.4,9.5
		c-0.9,2.6,0.4,5.8-1.8,5.7c-2.2,0-9.7-0.8-9.7-0.8L165.7,319.2z"/>
</g>
<g>
	<path fill="#38475B" d="M294.3,215.9c-1,1.7-2.4-8.8-4.9-12s2.3-13.8-3.8-13.4c-6.1,0.4-1.1,10.1-5.4,8.6s0,12.2-9.6,0.8
		c-9.6-11.5-2.7-1.3-7.1-5.9c-4.4-4.6-6.5,2.5-7.1-7.8c-0.6-10.3,0.6-9.8-4.2-14.2c-4.8-4.4-3.3-13.4-2.9-17.8
		c0.4-4.4-4.2-13.6-2.1-15.3c2.1-1.7-2.3-3.4,2.1-4.8c4.4-1.3,4-6.7,5.7-5.9c1.7,0.8,7.3,6.5,10.1,6.1c2.9-0.4-0.8-2.5-2.7-4.8
		c-1.9-2.3-3.4-7.7-6.5-8.2c-1.7-0.3-3.9-1.2-5.5-1.9c-1.2-0.6-2.2-1.1-2.5-1.3c-0.8-0.6,2.7,4.6,4.6,5.7c1.9,1.1-3.1-0.4-3.1-0.4
		s-3.4-4.5-4-5.4c-0.6-0.9-3.6-1.7-3.3,2c0.4,3.6,8.6,11.7,5.2,12.8c-3.4,1.1-6.3,3.6-8.6-1.3c-2.3-5-7.5-7.8-8.2-9.8
		c-0.8-1.9,5-1.3,5.9-2.3c1-1-0.8-1.8-4.5-2.1c-3.7-0.3-2.9-2.1-4.6-3.2c-1.7-1.1-0.2,0.2,0-5.5c0.2-5.7-1-2.5-3.1-5.4
		c-2.1-2.9-4.2-4.4-6.1-3.8c-1.9,0.6-6.1-4-4.4-2.3c1.7,1.7,3.6,3,0.4,3.3c-3.3,0.3-4.4,1.9-7.1-1.8s-1.7-6.3-5.7-7.1
		c-3.9-0.7,36.8,2.1,71.6,43.4C293.9,159.5,299.9,206.5,294.3,215.9z"/>
</g>
<g>
	<path fill="#38475B" d="M209.3,104.1c-1.1-1.1-1.1-3.3,2.3-1.5c2.5,1.2,5.8,2.4,8.2,3.1c0.9,0.3,1.7,0.5,2.2,0.6
		c1.7,0.4,6.3,2.9,2.1,5.5s-1.7-2.3-3.4-3.1c-1.7-0.8-2.1-3.9-2.1-1.5s-4-4.5-2.9,0s-0.1,7.7-1,2c-0.9-5.7-1-2.1-2.9-2.9
		C209.8,105.6,209.3,104.1,209.3,104.1z"/>
</g>
<g>
	<path fill="#38475B" d="M144.8,97.9c3.3,1.3,7.5-2.4,9.4,2.3c1.9,4.7,4.2,2.1,5.9,8s5.5-1.5,5.4,0c-0.2,1.5,3.8,3,4-4.1
		c0.2-7,3.3-2.1,5.2-3.9c1.9-1.8,2.5-4.3,0-4.3c-2.5,0-1.5-3.1-3.6-3.1s-3.1-1.3-6.1-1.6s-6.3-0.9-9.2,0.8
		c-2.9,1.7-7.9-0.7-10.1,1.3c-2.2,2-5.6-0.5-6.5,2.1c-1,2.6-1.9,5.4,1.9,3.9S144.8,97.9,144.8,97.9z"/>
</g>
<g>
	<path fill="#38475B" d="M188,97.2c-1.7,0.8-8.6,2.8-2.3,3.1c6.3,0.3,8.4,0,5.4-1.6C188,97.2,188,97.2,188,97.2z"/>
</g>
<g>
	<path fill="#38475B" d="M101.6,198.5c0,0,4.6-5.2,8.6-2.5s4.6,4.8,6.9,4.8c2.3,0,3.3,2.5,6.1,1.5s-0.8,2.3-3.4,2.1
		s-1.3-1.3-2.7-0.2s-3-0.2-1-1.7c2-1.5-4.6-2.3-5.4-2.6s-7.3-0.6-8.2,0S99.6,200.3,101.6,198.5z"/>
</g>
<g>
	<path fill="#38475B" d="M127.8,207.9c-2.4,0.7-10.9,5.3-1.9-3.2s8.8-2.5,5.9-1c-2.9,1.5,1.9,1,5.2,1.3c3.3,0.3,3.4,1.4,0,2.2
		c-3.4,0.8-5.9,0.6-6.3,1.7C130.3,210,128.8,207.6,127.8,207.9z"/>
</g>
<g>
	<path fill="#38475B" d="M139.5,207.3c0,0,0.5-2.6,2.7-2.3s2.5,1.2,2.9,2.3C145.4,208.5,140.3,208,139.5,207.3z"/>
</g>
<g>
	<path fill="#38475B" d="M112.5,208c-2,1,0.3,3.8,5.4,1.7C122.9,207.7,115.3,206.6,112.5,208z"/>
</g>
<g>
	<path fill="#F2F2F2" d="M332.3,330c-10.3,0-27.9-7.7-52.6-23.1c-31.6-19.7-70.6-49.4-109.6-83.7c-39.1-34.3-73.6-69-97.3-97.8
		C47.7,94.8,38.3,75.3,45.1,67.6c2.4-2.7,7.9-5.3,28.6,3.6c12.7,5.4,34.3,18.3,51,28.9l-6,2.8c-16.5-10.5-34.7-21.6-47.1-27
		C52.6,67.8,49.3,70.7,49,71c-3.4,3.8,1.9,19.5,27.9,51.1c23.5,28.6,57.8,63.1,96.7,97.2c38.9,34.1,77.6,63.6,109,83.2
		c34.7,21.6,50.9,24.8,54.3,21c3.6-4.1-5.6-27.3-49.7-75.7l1.5-5.8c17.4,19.1,36.7,42,44.9,55.2c9.3,15,11.6,24.7,7.2,29.7
		C338.9,329,336.1,330,332.3,330z"/>
</g>
<g>
	<path fill="#F2F2F2" d="M138.9,388c-0.4,0-0.8,0-1.2-0.1c-10.1-1.7-15.2-22.6-15.1-62.3c0.1-37.3,4.8-86,13.4-137.3
		c8.5-51.3,19.9-98.9,31.9-134.2c12.8-37.5,24.4-55.7,34.5-54.1c6.6,1.1,11,10.1,13.3,27.6c2,15.4,2.1,40.9,0.7,66.8l-6.3-2
		c3.5-65.4-3.2-86.4-8.5-87.2c-5-0.8-15.6,11.9-28.7,50.6c-11.9,35-23.2,82.4-31.7,133.4c-8.5,51-13.2,99.4-13.3,136.4
		c-0.1,40.9,5.7,56.4,10.8,57.2c0.5,0.1,4.9,0.2,14.5-18.2c6.3-12,12-23.6,18.1-42.1l4.7,0.5c-6.2,18.8-11.8,31.8-18.2,44
		C148.3,385,142.6,388,138.9,388z"/>
</g>
<g>
	<path fill="#F2F2F2" d="M15.2,306.1c-7.5,0-12.2-1.9-14.2-5.6c-4.8-9,8.6-25.9,40.1-50c29.5-22.7,71-48.8,116.8-73.4
		c45.8-24.6,90.4-44.8,125.7-56.9c37.5-12.8,59-14.8,63.9-5.8c1.7,3.2,2.2,9.3-13.4,25.6c-9.5,10-24.9,26.1-40.7,38l-1.4-5.8
		c15.6-11.8,29-25.9,38.4-35.7c14.3-15,12.8-19.1,12.5-19.6c-2.4-4.5-18.9-5-57.6,8.2c-35,12-79.4,32.1-124.9,56.5
		c-45.5,24.5-86.8,50.4-116.1,72.9c-32.4,24.9-41.1,39-38.7,43.5c2.6,4.8,21.4,6.9,82.2-17.5l3.6,4.2c-24,9.6-44.8,16.3-60,19.4
		C25,305.5,19.6,306.1,15.2,306.1z"/>
</g>
</svg>
