<?xml version="1.0" encoding="utf-8"?>
<!-- Generator: Adobe Illustrator 17.0.1, SVG Export Plug-In . SVG Version: 6.00 Build 0)  -->
<!DOCTYPE svg PUBLIC "-//W3C//DTD SVG 1.1//EN" "http://www.w3.org/Graphics/SVG/1.1/DTD/svg11.dtd">
<svg version="1.1" id="Layer_1" xmlns="http://www.w3.org/2000/svg" xmlns:xlink="http://www.w3.org/1999/xlink" x="0px" y="0px"
	 width="348.163px" height="388.046px" viewBox="0 0 348.163 388.046" enable-background="new 0 0 348.163 388.046"
	 xml:space="preserve">
<g>
	<g>
		<circle fill="#FFFFFF" cx="177.708" cy="206.622" r="116.614"/>
	</g>
	<g>
		<path fill="#FFFFFF" d="M165.654,320.227c0,0-6.216-4.495-5.929-7.363c0.287-2.869-2.869-5.451-4.016-9.754
			c-1.148-4.303-3.73-10.902-5.738-11.189c-2.008-0.287-12.91-3.443-14.344-5.451s-7.746-8.32-8.894-11.476
			c-1.148-3.156-6.598-5.164-7.459-5.164s-2.869-4.877-1.721-6.025c1.148-1.148,1.318-1.148-0.345-2.869
			c-1.663-1.721-2.354-6.885,0-6.598c2.354,0.287,2.354-3.156,1.78-4.877s2.869-6.885,0.861-7.746
			c-2.008-0.861-4.012-5.738-4.158-5.738s-7.605,3.443-9.326,0c-1.721-3.443-7.172-5.738-6.598-8.607
			c0.574-2.869-6.025-4.877-6.312-5.451s-4.59-3.73-6.598-6.885c-2.008-3.156-7.172,6.885-11.762-5.451
			c-4.59-12.336-4.877-20.656-4.877-27.541c0,0-1.148,11.762-1.721,12.91c-0.574,1.148-1.721-0.287,0-6.598
			c1.721-6.312,2.008-20.369,4.016-22.951c2.008-2.582,4.877-16.066,8.033-17.787s4.016-3.73,4.016-5.738s-0.765-7.555-0.765-7.555
			s19.508-24.435,40.449-33.036c2.504-1.028,8.121-1.729,6.792,1.86c-1.434,3.873-1.721,7.459-0.574,4.877
			c1.148-2.582,5.738-7.317,8.033-5.953c2.295,1.363,6.025-0.071,6.598,2.224c0.574,2.295,2.008,2.008,3.156,1.434
			c1.148-0.574-1.721,1.434-2.582,3.156c-0.861,1.721-2.582,5.164-4.016,4.016c-1.434-1.148-6.598-1.721-6.598-1.721
			s1.721-1.148,2.582-2.869c0.861-1.721-1.721-3.443-2.582-2.008c-0.861,1.434-4.59,4.303-4.59,5.164
			c0,0.861-0.574,2.295-2.582,2.295c-2.008,0,0.287,0.861-2.008,0s-16.066,7.746-12.336,10.902c3.73,3.156,4.303,0,5.738,1.721
			c1.434,1.721,0.77,2.011-0.717,2.869c-1.338,0.772,0.426,2.783,2.439,3.586c1.787-0.715,1.434-5.307,1.434-7.029
			c0-1.721,6.598-2.008,3.156-7.746c-3.443-5.738,4.651,1.495,5.451-3.443c0.8-4.938,6.025-0.861,6.598,0.574
			c0.574,1.434,5.286,3.984,6.025,0c0.739-3.984,4.303,3.156,4.303,3.156s3.156,1.434,5.738,4.877s1.434,7.172,3.443,5.451
			c2.008-1.721,5.57,2.952,4.709,3.812c-0.861,0.861-10.16,2.499-10.447,0.778c-0.287-1.721,2.582-5.451,0.574-6.312
			s-4.59,2.869-5.738,2.582c-1.148-0.287-5.451,0.861-3.156,1.148c2.295,0.287,5.451-1.148,2.295,0.287
			c-2.268,1.031-3.351,2.21-3.461,2.153c-0.043-0.022,0.063-0.234,0.305-0.718c0.861-1.721-4.016-2.869-6.885,1.434
			c-2.869,4.303,4.59-3.156,5.451,2.295c0.861,5.451,2.008,1.434,3.443,0.861c1.251-0.501-0.991,2.929,1.845,0.574
			c0.415-0.344,0.705-1.274,1.597-1.435c4.938-0.89,1.004,1.721-1.148,3.73c-4.303,1.148-9.18,8.033-7.746,0.861
			c-5.823,3.96-9.18,6.885-6.885,8.607c-5.38,4.39-6.671-1.127-11.476,15.492c-1.994,6.895-13.34,5.021-11.762,18.217
			c2.306,10.422-0.574,9.467-2.295,6.885c-1.004-2.008-1.486-7.665-2.869-9.611c-3.156-0.574-6.598-0.861-8.32,0
			c-1.721,0.861-2.582,4.303-4.59,2.582c-2.008-1.721-5.52-0.188-6.312,3.156c-1.729,7.307-5.606,28.556,5.164,23.525
			c4.427-2.068,1.531-3.365,4.303-7.363c9.544-5.503,4.59,6.216,3.156,10.806c-1.434,4.59,7.746,0.287,8.32,8.32
			s-1.554,13.25,8.607,11.189c4.331-0.879,4.877,0.861,6.312,3.156c5.738,1.148,4.303-11.476,8.607-9.18
			c4.303,2.295,1.721-2.869,5.738-0.861c4.016,2.008,8.033,0.574,10.328,1.434c2.295,0.861,11.189,0,13.771,3.156
			s8.894,4.016,11.762,5.451c2.869,1.434,14.324-5.491,21.23,8.32c2.582,5.164,2.582,5.164,10.328,5.164s21.804-2.008,24.672,0.574
			c2.869,2.582,12.623-0.574-3.73,21.804c1.148,13.484-2.582,16.353-17.787,24.959c-0.287,5.738-2.008,7.459-9.18,12.336
			c-7.172,4.877-15.492,6.885-16.353,9.467c-0.861,2.582,0.38,5.76-1.813,5.738c-2.193-0.023-9.663-0.815-9.663-0.815
			L165.654,320.227z"/>
	</g>
	<g>
		<path fill="#FFFFFF" d="M294.322,216.947c-0.983,1.656-2.437-8.798-4.923-12.049s2.295-13.771-3.825-13.388
			c-6.12,0.383-1.148,10.137-5.355,8.607s0,12.241-9.563,0.765c-9.563-11.476-2.678-1.339-7.077-5.929
			c-4.399-4.59-6.503,2.486-7.077-7.842c-0.574-10.328,0.574-9.754-4.208-14.153c-4.781-4.399-3.251-13.388-2.869-17.787
			c0.383-4.399-4.208-13.579-2.104-15.301c2.104-1.721-2.295-3.443,2.104-4.781c4.399-1.339,4.016-6.694,5.738-5.929
			s7.268,6.503,10.137,6.12c2.869-0.383-0.765-2.486-2.678-4.781c-1.913-2.295-3.443-7.65-6.503-8.224
			c-1.75-0.328-3.875-1.156-5.517-1.913c-1.23-0.567-2.189-1.093-2.516-1.339c-0.765-0.574,2.678,4.59,4.59,5.738
			c1.913,1.148-3.06-0.383-3.06-0.383s-3.443-4.488-4.016-5.4c-0.574-0.912-3.634-1.677-3.251,1.957
			c0.383,3.634,8.607,11.667,5.164,12.814c-3.443,1.148-6.312,3.634-8.607-1.339c-2.295-4.973-7.459-7.842-8.224-9.754
			c-0.765-1.913,4.973-1.339,5.929-2.295c0.956-0.956-0.844-1.794-4.534-2.14c-3.69-0.346-2.925-2.068-4.646-3.215
			c-1.721-1.148-0.191,0.191,0-5.547c0.191-5.738-0.956-2.486-3.06-5.355c-2.104-2.869-4.208-4.399-6.12-3.825
			c-1.913,0.574-6.12-4.016-4.399-2.295c1.721,1.721,3.634,2.973,0.383,3.304c-3.251,0.33-4.399,1.86-7.077-1.773
			s-1.727-6.335-5.663-7.078c-3.936-0.743,36.839,2.105,71.648,43.417C293.906,160.497,299.918,207.516,294.322,216.947z"/>
	</g>
	<g>
		<path fill="#FFFFFF" d="M209.261,105.06c-1.148-1.148-1.148-3.251,2.295-1.53c2.474,1.237,5.838,2.376,8.174,3.06
			c0.914,0.268,1.67,0.466,2.154,0.574c1.721,0.383,6.312,2.869,2.104,5.547s-1.721-2.295-3.443-3.06
			c-1.721-0.765-2.104-3.884-2.104-1.464s-4.016-4.524-2.869,0s-0.099,7.742-0.956,2.037c-0.857-5.704-0.956-2.104-2.869-2.869
			C209.835,106.59,209.261,105.06,209.261,105.06z"/>
	</g>
	<g>
		<path fill="#FFFFFF" d="M144.807,98.94c3.251,1.339,7.459-2.382,9.372,2.347c1.913,4.729,4.208,2.052,5.929,7.981
			s5.547-1.53,5.355,0c-0.191,1.53,3.825,2.951,4.016-4.071c0.191-7.022,3.251-2.136,5.164-3.91c1.913-1.773,2.486-4.26,0-4.26
			c-2.486,0-1.53-3.06-3.634-3.06s-3.06-1.272-6.12-1.592s-6.312-0.894-9.18,0.827c-2.869,1.721-7.909-0.707-10.075,1.272
			c-2.166,1.979-5.556-0.496-6.539,2.08c-0.982,2.576-1.939,5.445,1.887,3.915S144.807,98.94,144.807,98.94z"/>
	</g>
	<g>
		<path fill="#FFFFFF" d="M188.032,98.175c-1.721,0.765-8.607,2.782-2.295,3.112c6.312,0.33,8.415,0,5.355-1.556
			C188.032,98.175,188.032,98.175,188.032,98.175z"/>
	</g>
	<g>
		<path fill="#FFFFFF" d="M101.583,199.542c0,0,4.59-5.164,8.607-2.486s4.59,4.781,6.885,4.781c2.295,0,3.251,2.486,6.12,1.53
			s-0.765,2.295-3.443,2.104s-1.339-1.339-2.678-0.191s-3.002-0.194-0.956-1.721c2.046-1.527-4.59-2.252-5.355-2.56
			s-7.268-0.648-8.224,0S99.559,201.294,101.583,199.542z"/>
	</g>
	<g>
		<path fill="#FFFFFF" d="M127.785,208.914c-2.43,0.652-10.902,5.26-1.913-3.203s8.798-2.535,5.929-1.005
			c-2.869,1.53,1.913,0.975,5.164,1.253c3.251,0.277,3.443,1.425,0,2.19c-3.443,0.765-5.94,0.574-6.317,1.721
			C130.271,211.018,128.84,208.631,127.785,208.914z"/>
	</g>
	<g>
		<path fill="#FFFFFF" d="M139.476,208.34c0,0,0.549-2.566,2.653-2.335s2.486,1.187,2.869,2.335
			C145.381,209.488,140.342,209.033,139.476,208.34z"/>
	</g>
	<g>
		<path fill="#FFFFFF" d="M112.48,209.04c-1.95,0.956,0.277,3.759,5.36,1.71C122.922,208.701,115.344,207.637,112.48,209.04z"/>
	</g>
	<g>
		<path fill="#FFFFFF" d="M332.337,330.996c-10.297,0.001-27.896-7.72-52.578-23.09c-31.64-19.703-70.577-49.423-109.639-83.687
			c-39.062-34.264-73.603-68.996-97.26-97.799C47.682,95.766,38.336,76.324,45.082,68.633c2.381-2.715,7.939-5.3,28.636,3.553
			c12.678,5.423,34.307,18.284,51.032,28.919l-5.965,2.783c-16.497-10.49-34.668-21.637-47.098-26.954
			c-19.095-8.167-22.408-5.254-22.723-4.896c-3.356,3.826,1.933,19.506,27.886,51.104c23.485,28.593,57.818,63.111,96.675,97.195
			c38.857,34.084,77.554,63.627,108.964,83.185c34.71,21.614,50.945,24.815,54.302,20.988c3.565-4.064-5.612-27.304-49.72-75.724
			l1.522-5.773c17.44,19.145,36.717,41.972,44.892,55.159c9.272,14.957,11.623,24.686,7.188,29.743
			C338.871,329.97,336.087,330.995,332.337,330.996z"/>
	</g>
	<g>
		<path fill="#FFFFFF" d="M138.93,389.046c-0.411,0-0.795-0.039-1.155-0.099c-10.091-1.683-15.165-22.649-15.082-62.317
			c0.078-37.274,4.827-86.027,13.371-137.279c8.545-51.252,19.87-98.909,31.888-134.191c12.79-37.549,24.381-55.73,34.484-54.054
			c6.634,1.106,10.973,10.126,13.266,27.574c2.021,15.383,2.057,40.898,0.677,66.758l-6.304-1.996
			c3.489-65.405-3.156-86.353-8.489-87.242c-5.022-0.839-15.561,11.918-28.746,50.625c-11.931,35.025-23.183,82.392-31.683,133.376
			c-8.5,50.983-13.224,99.439-13.301,136.44c-0.085,40.889,5.747,56.376,10.768,57.213c0.47,0.076,4.878,0.238,14.49-18.175
			c6.256-11.984,11.951-23.56,18.08-42.124l4.654,0.498c-6.213,18.821-11.775,31.792-18.155,44.016
			C148.33,386.005,142.583,389.046,138.93,389.046z"/>
	</g>
	<g>
		<path fill="#FFFFFF" d="M15.177,307.119c-7.52,0.001-12.21-1.859-14.217-5.595c-4.841-9.012,8.642-25.851,40.075-50.049
			c29.536-22.737,71.01-48.801,116.783-73.39c45.773-24.589,90.402-44.78,125.666-56.852c37.53-12.849,59.014-14.794,63.855-5.781
			c1.709,3.181,2.184,9.293-13.356,25.578c-9.519,9.976-24.893,26.063-40.712,38.005l-1.39-5.843
			c15.603-11.778,29.033-25.946,38.366-35.727c14.337-15.025,12.769-19.148,12.543-19.569c-2.409-4.483-18.948-5.02-57.633,8.223
			c-35.007,11.985-79.362,32.056-124.896,56.516c-45.533,24.46-86.757,50.361-116.076,72.932
			C11.785,280.509,3.101,294.596,5.509,299.08c2.559,4.765,21.389,6.899,82.189-17.46l3.642,4.219
			c-24.04,9.632-44.789,16.329-60.004,19.368C24.961,306.481,19.583,307.119,15.177,307.119z"/>
	</g>
</g>
<g>
	<g>
		<circle fill="#84B2C2" cx="177.708" cy="205.622" r="116.614"/>
	</g>
	<g>
		<path fill="#38475B" d="M165.654,319.227c0,0-6.216-4.495-5.929-7.363c0.287-2.869-2.869-5.451-4.016-9.754
			c-1.148-4.303-3.73-10.902-5.738-11.189c-2.008-0.287-12.91-3.443-14.344-5.451s-7.746-8.32-8.894-11.476
			c-1.148-3.156-6.598-5.164-7.459-5.164s-2.869-4.877-1.721-6.025c1.148-1.148,1.318-1.148-0.345-2.869
			c-1.663-1.721-2.354-6.885,0-6.598c2.354,0.287,2.354-3.156,1.78-4.877s2.869-6.885,0.861-7.746
			c-2.008-0.861-4.012-5.738-4.158-5.738s-7.605,3.443-9.326,0c-1.721-3.443-7.172-5.738-6.598-8.607
			c0.574-2.869-6.025-4.877-6.312-5.451s-4.59-3.73-6.598-6.885c-2.008-3.156-7.172,6.885-11.762-5.451
			c-4.59-12.336-4.877-20.656-4.877-27.541c0,0-1.148,11.762-1.721,12.91c-0.574,1.148-1.721-0.287,0-6.598
			c1.721-6.312,2.008-20.369,4.016-22.951c2.008-2.582,4.877-16.066,8.033-17.787s4.016-3.73,4.016-5.738s-0.765-7.555-0.765-7.555
			s19.508-24.435,40.449-33.036c2.504-1.028,8.121-1.729,6.792,1.86c-1.434,3.873-1.721,7.459-0.574,4.877
			c1.148-2.582,5.738-7.317,8.033-5.953c2.295,1.363,6.025-0.071,6.598,2.224c0.574,2.295,2.008,2.008,3.156,1.434
			c1.148-0.574-1.721,1.434-2.582,3.156c-0.861,1.721-2.582,5.164-4.016,4.016c-1.434-1.148-6.598-1.721-6.598-1.721
			s1.721-1.148,2.582-2.869c0.861-1.721-1.721-3.443-2.582-2.008c-0.861,1.434-4.59,4.303-4.59,5.164
			c0,0.861-0.574,2.295-2.582,2.295c-2.008,0,0.287,0.861-2.008,0s-16.066,7.746-12.336,10.902c3.73,3.156,4.303,0,5.738,1.721
			c1.434,1.721,0.77,2.011-0.717,2.869c-1.338,0.772,0.426,2.783,2.439,3.586c1.787-0.715,1.434-5.307,1.434-7.029
			c0-1.721,6.598-2.008,3.156-7.746c-3.443-5.738,4.651,1.495,5.451-3.443c0.8-4.938,6.025-0.861,6.598,0.574
			c0.574,1.434,5.286,3.984,6.025,0c0.739-3.984,4.303,3.156,4.303,3.156s3.156,1.434,5.738,4.877s1.434,7.172,3.443,5.451
			c2.008-1.721,5.57,2.952,4.709,3.812c-0.861,0.861-10.16,2.499-10.447,0.778c-0.287-1.721,2.582-5.451,0.574-6.312
			s-4.59,2.869-5.738,2.582c-1.148-0.287-5.451,0.861-3.156,1.148c2.295,0.287,5.451-1.148,2.295,0.287
			c-2.268,1.031-3.351,2.21-3.461,2.153c-0.043-0.022,0.063-0.234,0.305-0.718c0.861-1.721-4.016-2.869-6.885,1.434
			c-2.869,4.303,4.59-3.156,5.451,2.295c0.861,5.451,2.008,1.434,3.443,0.861c1.251-0.501-0.991,2.929,1.845,0.574
			c0.415-0.344,0.705-1.274,1.597-1.435c4.938-0.89,1.004,1.721-1.148,3.73c-4.303,1.148-9.18,8.033-7.746,0.861
			c-5.823,3.96-9.18,6.885-6.885,8.607c-5.38,4.39-6.671-1.127-11.476,15.492c-1.994,6.895-13.34,5.021-11.762,18.217
			c2.306,10.422-0.574,9.467-2.295,6.885c-1.004-2.008-1.486-7.665-2.869-9.611c-3.156-0.574-6.598-0.861-8.32,0
			c-1.721,0.861-2.582,4.303-4.59,2.582c-2.008-1.721-5.52-0.188-6.312,3.156c-1.729,7.307-5.606,28.556,5.164,23.525
			c4.427-2.068,1.531-3.365,4.303-7.363c9.544-5.503,4.59,6.216,3.156,10.806c-1.434,4.59,7.746,0.287,8.32,8.32
			s-1.554,13.25,8.607,11.189c4.331-0.879,4.877,0.861,6.312,3.156c5.738,1.148,4.303-11.476,8.607-9.18
			c4.303,2.295,1.721-2.869,5.738-0.861c4.016,2.008,8.033,0.574,10.328,1.434c2.295,0.861,11.189,0,13.771,3.156
			s8.894,4.016,11.762,5.451c2.869,1.434,14.324-5.491,21.23,8.32c2.582,5.164,2.582,5.164,10.328,5.164s21.804-2.008,24.672,0.574
			c2.869,2.582,12.623-0.574-3.73,21.804c1.148,13.484-2.582,16.353-17.787,24.959c-0.287,5.738-2.008,7.459-9.18,12.336
			c-7.172,4.877-15.492,6.885-16.353,9.467c-0.861,2.582,0.38,5.76-1.813,5.738c-2.193-0.023-9.663-0.815-9.663-0.815
			L165.654,319.227z"/>
	</g>
	<g>
		<path fill="#38475B" d="M294.322,215.947c-0.983,1.656-2.437-8.798-4.923-12.049s2.295-13.771-3.825-13.388
			c-6.12,0.383-1.148,10.137-5.355,8.607s0,12.241-9.563,0.765c-9.563-11.476-2.678-1.339-7.077-5.929
			c-4.399-4.59-6.503,2.486-7.077-7.842c-0.574-10.328,0.574-9.754-4.208-14.153c-4.781-4.399-3.251-13.388-2.869-17.787
			c0.383-4.399-4.208-13.579-2.104-15.301c2.104-1.721-2.295-3.443,2.104-4.781c4.399-1.339,4.016-6.694,5.738-5.929
			c1.721,0.765,7.268,6.503,10.137,6.12c2.869-0.383-0.765-2.486-2.678-4.781c-1.913-2.295-3.443-7.65-6.503-8.224
			c-1.75-0.328-3.875-1.156-5.517-1.913c-1.23-0.567-2.189-1.093-2.516-1.339c-0.765-0.574,2.678,4.59,4.59,5.738
			c1.913,1.148-3.06-0.383-3.06-0.383s-3.443-4.488-4.016-5.4c-0.574-0.912-3.634-1.677-3.251,1.957
			c0.383,3.634,8.607,11.667,5.164,12.814c-3.443,1.148-6.312,3.634-8.607-1.339c-2.295-4.973-7.459-7.842-8.224-9.754
			c-0.765-1.913,4.973-1.339,5.929-2.295c0.956-0.956-0.844-1.794-4.534-2.14c-3.69-0.346-2.925-2.068-4.646-3.215
			c-1.721-1.148-0.191,0.191,0-5.547c0.191-5.738-0.956-2.486-3.06-5.355c-2.104-2.869-4.208-4.399-6.12-3.825
			c-1.913,0.574-6.12-4.016-4.399-2.295c1.721,1.721,3.634,2.973,0.383,3.304c-3.251,0.33-4.399,1.86-7.077-1.773
			s-1.727-6.335-5.663-7.078c-3.936-0.743,36.839,2.105,71.648,43.417C293.906,159.497,299.918,206.516,294.322,215.947z"/>
	</g>
	<g>
		<path fill="#38475B" d="M209.261,104.06c-1.148-1.148-1.148-3.251,2.295-1.53c2.474,1.237,5.838,2.376,8.174,3.06
			c0.914,0.268,1.67,0.466,2.154,0.574c1.721,0.383,6.312,2.869,2.104,5.547s-1.721-2.295-3.443-3.06
			c-1.721-0.765-2.104-3.884-2.104-1.464s-4.016-4.524-2.869,0s-0.099,7.742-0.956,2.037c-0.857-5.704-0.956-2.104-2.869-2.869
			C209.835,105.59,209.261,104.06,209.261,104.06z"/>
	</g>
	<g>
		<path fill="#38475B" d="M144.807,97.94c3.251,1.339,7.459-2.382,9.372,2.347c1.913,4.729,4.208,2.052,5.929,7.981
			s5.547-1.53,5.355,0c-0.191,1.53,3.825,2.951,4.016-4.071c0.191-7.022,3.251-2.136,5.164-3.91c1.913-1.773,2.486-4.26,0-4.26
			c-2.486,0-1.53-3.06-3.634-3.06s-3.06-1.272-6.12-1.592s-6.312-0.894-9.18,0.827c-2.869,1.721-7.909-0.707-10.075,1.272
			c-2.166,1.979-5.556-0.496-6.539,2.08c-0.982,2.576-1.939,5.445,1.887,3.915S144.807,97.94,144.807,97.94z"/>
	</g>
	<g>
		<path fill="#38475B" d="M188.032,97.175c-1.721,0.765-8.607,2.782-2.295,3.112c6.312,0.33,8.415,0,5.355-1.556
			C188.032,97.175,188.032,97.175,188.032,97.175z"/>
	</g>
	<g>
		<path fill="#38475B" d="M101.583,198.542c0,0,4.59-5.164,8.607-2.486s4.59,4.781,6.885,4.781c2.295,0,3.251,2.486,6.12,1.53
			s-0.765,2.295-3.443,2.104s-1.339-1.339-2.678-0.191s-3.002-0.194-0.956-1.721c2.046-1.527-4.59-2.252-5.355-2.56
			s-7.268-0.648-8.224,0S99.559,200.294,101.583,198.542z"/>
	</g>
	<g>
		<path fill="#38475B" d="M127.785,207.914c-2.43,0.652-10.902,5.26-1.913-3.203s8.798-2.535,5.929-1.005
			c-2.869,1.53,1.913,0.975,5.164,1.253c3.251,0.277,3.443,1.425,0,2.19c-3.443,0.765-5.94,0.574-6.317,1.721
			C130.271,210.018,128.84,207.631,127.785,207.914z"/>
	</g>
	<g>
		<path fill="#38475B" d="M139.476,207.34c0,0,0.549-2.566,2.653-2.335s2.486,1.187,2.869,2.335
			C145.381,208.488,140.342,208.033,139.476,207.34z"/>
	</g>
	<g>
		<path fill="#38475B" d="M112.48,208.04c-1.95,0.956,0.277,3.759,5.36,1.71C122.922,207.701,115.344,206.637,112.48,208.04z"/>
	</g>
	<g>
		<linearGradient id="SVGID_1_" gradientUnits="userSpaceOnUse" x1="31.0141" y1="63.4904" x2="346.014" y2="329.4904">
			<stop  offset="0" style="stop-color:#CCCCCC"/>
			<stop  offset="0.449" style="stop-color:#F2F2F2"/>
			<stop  offset="1" style="stop-color:#CCCCCC"/>
		</linearGradient>
		<path fill="url(#SVGID_1_)" d="M332.337,329.996c-10.297,0.001-27.896-7.72-52.578-23.09
			c-31.64-19.703-70.577-49.423-109.639-83.687c-39.062-34.264-73.603-68.996-97.26-97.799
			C47.682,94.766,38.336,75.324,45.082,67.633c2.381-2.715,7.939-5.3,28.636,3.553c12.678,5.423,34.307,18.284,51.032,28.919
			l-5.965,2.783c-16.497-10.49-34.668-21.637-47.098-26.954c-19.095-8.167-22.408-5.254-22.723-4.896
			c-3.356,3.826,1.933,19.506,27.886,51.104c23.485,28.593,57.818,63.111,96.675,97.195c38.857,34.084,77.554,63.627,108.964,83.185
			c34.71,21.614,50.945,24.815,54.302,20.988c3.565-4.064-5.612-27.304-49.72-75.724l1.522-5.773
			c17.44,19.145,36.717,41.972,44.892,55.159c9.272,14.957,11.623,24.686,7.188,29.743
			C338.871,328.97,336.087,329.995,332.337,329.996z"/>
	</g>
	<g>
		<linearGradient id="SVGID_2_" gradientUnits="userSpaceOnUse" x1="193.6885" y1="4.0377" x2="144.6885" y2="381.0377">
			<stop  offset="0" style="stop-color:#CCCCCC"/>
			<stop  offset="0.449" style="stop-color:#F2F2F2"/>
			<stop  offset="1" style="stop-color:#CCCCCC"/>
		</linearGradient>
		<path fill="url(#SVGID_2_)" d="M138.93,388.046c-0.411,0-0.795-0.039-1.155-0.099c-10.091-1.683-15.165-22.649-15.082-62.317
			c0.078-37.274,4.827-86.027,13.371-137.279c8.545-51.252,19.87-98.909,31.888-134.191c12.79-37.549,24.381-55.73,34.484-54.054
			c6.634,1.106,10.973,10.126,13.266,27.574c2.021,15.383,2.057,40.898,0.677,66.758l-6.304-1.996
			c3.489-65.405-3.156-86.353-8.489-87.242c-5.022-0.839-15.561,11.918-28.746,50.625c-11.931,35.025-23.183,82.392-31.683,133.376
			c-8.5,50.983-13.224,99.439-13.301,136.44c-0.085,40.889,5.747,56.376,10.768,57.213c0.47,0.076,4.878,0.238,14.49-18.175
			c6.256-11.984,11.951-23.56,18.08-42.124l4.654,0.498c-6.213,18.821-11.775,31.792-18.155,44.016
			C148.33,385.005,142.583,388.046,138.93,388.046z"/>
	</g>
	<g>
		<linearGradient id="SVGID_3_" gradientUnits="userSpaceOnUse" x1="-13.5654" y1="317.9166" x2="339.4346" y2="109.9166">
			<stop  offset="0" style="stop-color:#CCCCCC"/>
			<stop  offset="0.449" style="stop-color:#F2F2F2"/>
			<stop  offset="1" style="stop-color:#CCCCCC"/>
		</linearGradient>
		<path fill="url(#SVGID_3_)" d="M15.177,306.119c-7.52,0.001-12.21-1.859-14.217-5.595c-4.841-9.012,8.642-25.851,40.075-50.049
			c29.536-22.737,71.01-48.801,116.783-73.39c45.773-24.589,90.402-44.78,125.666-56.852c37.53-12.849,59.014-14.794,63.855-5.781
			c1.709,3.181,2.184,9.293-13.356,25.578c-9.519,9.976-24.893,26.063-40.712,38.005l-1.39-5.843
			c15.603-11.778,29.033-25.946,38.366-35.727c14.337-15.025,12.769-19.148,12.543-19.569c-2.409-4.483-18.948-5.02-57.633,8.223
			c-35.007,11.985-79.362,32.056-124.896,56.516c-45.533,24.46-86.757,50.361-116.076,72.932
			C11.785,279.509,3.101,293.596,5.509,298.08c2.559,4.765,21.389,6.899,82.189-17.46l3.642,4.219
			c-24.04,9.632-44.789,16.329-60.004,19.368C24.961,305.481,19.583,306.119,15.177,306.119z"/>
	</g>
</g>
</svg>
